<svg width="84" height="76" viewBox="0 0 84 76" fill="none" xmlns="http://www.w3.org/2000/svg">
<path d="M42.0554 47.8692C42.687 49.5049 42.6703 51.3201 42.0088 52.9438C41.3474 54.5676 40.0911 55.8773 38.4967 56.6052C36.9024 57.3331 35.0903 57.4243 33.431 56.8601C31.7717 56.2959 30.3904 55.119 29.5695 53.5698C28.7485 52.0206 28.5499 50.2163 29.0142 48.5255C29.4786 46.8347 30.5708 45.3852 32.0676 44.4732C33.5644 43.5613 35.3528 43.2557 37.0673 43.619C38.7818 43.9823 40.2928 44.9871 41.2916 46.4279" stroke="white" stroke-width="2" stroke-linecap="round" stroke-linejoin="round"/>
<path d="M47.541 42.3252C49.6236 45.4036 50.4373 49.168 49.8122 52.8323C49.1871 56.4967 47.1715 59.7779 44.1862 61.9909C41.2009 64.2039 37.4767 65.1777 33.791 64.709C30.1053 64.2402 26.7429 62.3652 24.4059 59.4754C22.0689 56.5855 20.9378 52.9042 21.2488 49.1998C21.5598 45.4955 23.2889 42.0545 26.075 39.5953C28.8611 37.136 32.4889 35.8485 36.2011 36.0015C39.9134 36.1545 43.423 37.7363 45.9975 40.4166" stroke="white" stroke-width="2" stroke-linecap="round" stroke-linejoin="round"/>
<path d="M52.5238 37.8197C55.7701 42.196 57.1938 47.6613 56.4956 53.0663C55.7973 58.4713 53.0315 63.3947 48.7797 66.8014C44.528 70.208 39.1216 71.8322 33.6975 71.3326C28.2734 70.833 23.2543 68.2484 19.6956 64.1223C16.137 59.9962 14.3161 54.6502 14.6159 49.2086C14.9157 43.7669 17.3129 38.6535 21.3032 34.9438C25.2936 31.2341 30.5662 29.2171 36.0123 29.317C41.4584 29.4169 46.6536 31.6259 50.5054 35.4795" stroke="white" stroke-width="2" stroke-linecap="round" stroke-linejoin="round"/>
<path d="M47.0108 41.6011L36.7922 51.8251L35.4941 50.5223L60.055 25.9482L61.3571 27.251L47.0108 41.6011Z" fill="#A6BDC6"/>
<path d="M56 29.9873L35.6279 50.3598" stroke="white" stroke-width="2" stroke-linecap="round" stroke-linejoin="round"/>
<path d="M55.0918 25.5719L56.2078 29.7415L60.3752 30.8582L63.4265 27.8092L72.4063 18.8246L72.343 18.7572L67.0675 18.6187V13.5938L58.1431 22.5229L55.0918 25.5719Z" stroke="white" stroke-width="2" stroke-linecap="round" stroke-linejoin="round"/>
</svg>
