<svg width="82" height="83" viewBox="0 0 82 83" fill="none" xmlns="http://www.w3.org/2000/svg">
<g clip-path="url(#clip0)">
<path d="M48.2621 64.2883C48.2634 63.4523 48.0186 62.6345 47.5583 61.9369C47.0979 61.2393 46.4425 60.6929 45.6736 60.3657C44.9048 60.0386 44.0567 59.9453 43.2353 60.0975C42.4138 60.2497 41.6553 60.6406 41.0545 61.2214C40.4537 61.8023 40.0372 62.5474 39.857 63.3636C39.6767 64.1799 39.7408 65.0312 40.0411 65.8113C40.3415 66.5914 40.8648 67.2656 41.5457 67.7499C42.2267 68.2342 43.0351 68.5071 43.8701 68.5345H44.1443C45.2475 68.5006 46.2941 68.0385 47.0627 67.2459C47.8313 66.4534 48.2614 65.3926 48.2621 64.2883V64.2883Z" stroke="white" stroke-width="2" stroke-linecap="round" stroke-linejoin="round"/>
<path d="M48.5768 68.5342H44.1354H44.0006H43.8612H39.4243C38.6688 68.5354 37.9445 68.8362 37.4103 69.3708C36.8761 69.9053 36.5754 70.63 36.5742 71.386V80.3822C39.6069 82.0976 43.1405 82.7065 46.5719 82.105L50.838 80.6836C51.0358 80.5801 51.2381 80.4767 51.4314 80.3642V71.368C51.4255 70.6144 51.1221 69.8936 50.5874 69.3628C50.0527 68.832 49.33 68.5342 48.5768 68.5342Z" stroke="white" stroke-width="2" stroke-linecap="round" stroke-linejoin="round"/>
<path d="M44.0048 82.3257C52.3095 82.3257 59.0418 75.5893 59.0418 67.2796C59.0418 58.9698 52.3095 52.2334 44.0048 52.2334C35.7001 52.2334 28.9678 58.9698 28.9678 67.2796C28.9678 75.5893 35.7001 82.3257 44.0048 82.3257Z" stroke="white" stroke-width="2" stroke-linecap="round" stroke-linejoin="round"/>
<path d="M73.3374 38.8696C73.3371 38.2514 73.1549 37.6469 72.8135 37.1316C72.4721 36.6162 71.9866 36.2129 71.4176 35.9718C70.8486 35.7308 70.2213 35.6627 69.6138 35.776C69.0064 35.8894 68.4458 36.1791 68.0019 36.6092C67.5579 37.0393 67.2504 37.5906 67.1175 38.1944C66.9847 38.7982 67.0324 39.4278 67.2548 40.0046C67.4772 40.5815 67.8644 41.08 68.3681 41.4381C68.8718 41.7962 69.4698 41.998 70.0873 42.0183H70.2896C71.1069 41.9926 71.8821 41.6495 72.451 41.0618C73.0199 40.4741 73.3379 39.6879 73.3374 38.8696Z" stroke="white" stroke-width="2" stroke-linecap="round" stroke-linejoin="round"/>
<path d="M73.5758 42.0137H66.7968C66.2376 42.016 65.702 42.2397 65.307 42.6358C64.912 43.0319 64.6897 43.5682 64.6885 44.1278V50.7805C66.9303 52.0573 69.5469 52.5123 72.0879 52.0669L75.2346 51.0144L75.6842 50.7805V44.1278C75.683 43.5682 75.4606 43.0319 75.0656 42.6358C74.6706 42.2397 74.135 42.016 73.5758 42.0137Z" stroke="white" stroke-width="2" stroke-linecap="round" stroke-linejoin="round"/>
<path d="M70.1864 52.2282C76.3386 52.2282 81.3259 47.2378 81.3259 41.0819C81.3259 34.9259 76.3386 29.9355 70.1864 29.9355C64.0342 29.9355 59.0469 34.9259 59.0469 41.0819C59.0469 47.2378 64.0342 52.2282 70.1864 52.2282Z" stroke="white" stroke-width="2" stroke-linecap="round" stroke-linejoin="round"/>
<path d="M20.3326 28.6489C20.3322 28.0307 20.15 27.4262 19.8086 26.9108C19.4672 26.3955 18.9817 25.9922 18.4127 25.7511C17.8437 25.5101 17.2164 25.442 16.609 25.5553C16.0015 25.6687 15.4409 25.9584 14.997 26.3885C14.5531 26.8186 14.2455 27.3699 14.1126 27.9737C13.9798 28.5775 14.0276 29.2071 14.25 29.7839C14.4723 30.3607 14.8595 30.8593 15.3632 31.2174C15.8669 31.5755 16.4649 31.7773 17.0824 31.7976H17.2847C18.102 31.7719 18.8772 31.4288 19.4462 30.8411C20.0151 30.2534 20.333 29.4671 20.3326 28.6489V28.6489Z" stroke="white" stroke-width="2" stroke-linecap="round" stroke-linejoin="round"/>
<path d="M20.5754 31.7979H13.7919C13.2331 31.799 12.6976 32.0217 12.3024 32.4171C11.9073 32.8124 11.6848 33.3483 11.6836 33.9075V40.5602C13.359 41.5139 15.2538 42.0147 17.1814 42.013C17.8187 42.0119 18.4547 41.9577 19.083 41.8511L22.2297 40.7986L22.6793 40.5602V33.9075C22.6781 33.3491 22.4562 32.8139 22.062 32.4186C21.6679 32.0234 21.1335 31.8002 20.5754 31.7979V31.7979Z" stroke="white" stroke-width="2" stroke-linecap="round" stroke-linejoin="round"/>
<path d="M17.1815 42.0133C23.3337 42.0133 28.321 37.0229 28.321 30.867C28.321 24.7111 23.3337 19.7207 17.1815 19.7207C11.0293 19.7207 6.04199 24.7111 6.04199 30.867C6.04199 37.0229 11.0293 42.0133 17.1815 42.0133Z" stroke="white" stroke-width="2" stroke-linecap="round" stroke-linejoin="round"/>
<path d="M51.7826 14.2912C51.7841 13.8314 51.6502 13.3812 51.3974 12.9971C51.1447 12.613 50.7844 12.312 50.3616 12.1316C49.9388 11.9513 49.4723 11.8997 49.0203 11.9833C48.5684 12.0668 48.151 12.2818 47.8205 12.6014C47.4901 12.921 47.2611 13.331 47.1622 13.7801C47.0633 14.2292 47.0989 14.6975 47.2646 15.1265C47.4302 15.5555 47.7186 15.926 48.0936 16.1919C48.4687 16.4578 48.9137 16.6071 49.3731 16.6213H49.5214C50.1272 16.6037 50.7023 16.3505 51.1246 15.9154C51.5468 15.4803 51.7828 14.8977 51.7826 14.2912V14.2912Z" stroke="white" stroke-width="2" stroke-linecap="round" stroke-linejoin="round"/>
<path d="M51.9578 16.6211H46.9365C46.5223 16.6235 46.1257 16.7891 45.8329 17.0822C45.54 17.3752 45.3744 17.772 45.3721 18.1864V23.1343C46.6149 23.8407 48.0201 24.2111 49.4494 24.2094C49.921 24.21 50.3918 24.1694 50.8564 24.088L53.1985 23.3098L53.5222 23.1343V18.1864C53.521 17.7716 53.3558 17.3742 53.0627 17.0809C52.7695 16.7876 52.3723 16.6223 51.9578 16.6211Z" stroke="white" stroke-width="2" stroke-linecap="round" stroke-linejoin="round"/>
<path d="M49.4449 24.1919C54.0032 24.1919 57.6984 20.4944 57.6984 15.9333C57.6984 11.3723 54.0032 7.6748 49.4449 7.6748C44.8866 7.6748 41.1914 11.3723 41.1914 15.9333C41.1914 20.4944 44.8866 24.1919 49.4449 24.1919Z" stroke="white" stroke-width="2" stroke-linecap="round" stroke-linejoin="round"/>
<path d="M11.265 62.6418C11.2666 62.1819 11.1326 61.7318 10.8799 61.3477C10.6271 60.9636 10.2668 60.6626 9.84403 60.4822C9.42123 60.3019 8.95469 60.2503 8.50273 60.3338C8.05078 60.4174 7.63347 60.6324 7.30298 60.952C6.97249 61.2716 6.74348 61.6816 6.64459 62.1307C6.54571 62.5798 6.58132 63.0481 6.747 63.4771C6.91267 63.9061 7.20104 64.2766 7.57606 64.5425C7.95108 64.8083 8.39611 64.9577 8.8555 64.9718H9.01733C9.62041 64.9497 10.1915 64.6947 10.6106 64.2602C11.0297 63.8257 11.2643 63.2457 11.265 62.6418V62.6418Z" stroke="white" stroke-width="2" stroke-linecap="round" stroke-linejoin="round"/>
<path d="M11.4412 64.9717H6.41985C6.00532 64.9729 5.60809 65.1382 5.31497 65.4315C5.02185 65.7248 4.85665 66.1222 4.85547 66.537V71.4624C6.09544 72.1723 7.49971 72.5445 8.92827 72.542C9.39984 72.5407 9.87048 72.5001 10.3353 72.4205L12.6774 71.6424L13.0056 71.4624V66.537C13.0032 66.1226 12.8376 65.7258 12.5448 65.4328C12.2519 65.1397 11.8554 64.974 11.4412 64.9717V64.9717Z" stroke="white" stroke-width="2" stroke-linecap="round" stroke-linejoin="round"/>
<path d="M8.92732 72.5415C13.4856 72.5415 17.1808 68.844 17.1808 64.2829C17.1808 59.7219 13.4856 56.0244 8.92732 56.0244C4.36904 56.0244 0.673828 59.7219 0.673828 64.2829C0.673828 68.844 4.36904 72.5415 8.92732 72.5415Z" stroke="white" stroke-width="2" stroke-linecap="round" stroke-linejoin="round"/>
<path d="M13.0004 44.2305L12.4609 45.9442" stroke="white" stroke-width="2" stroke-linecap="round" stroke-linejoin="round"/>
<path d="M11.0228 50.5146L10.4834 52.2329" stroke="white" stroke-width="2" stroke-linecap="round" stroke-linejoin="round"/>
<path d="M17.1816 56.0248L18.3684 54.6709" stroke="white" stroke-width="2" stroke-linecap="round" stroke-linejoin="round"/>
<path d="M20.5938 52.1431L41.7085 28.1143" stroke="white" stroke-width="2" stroke-linecap="round" stroke-linejoin="round" stroke-dasharray="7.49 7.49"/>
<path d="M42.8184 26.8455L44.0051 25.4961" stroke="white" stroke-width="2" stroke-linecap="round" stroke-linejoin="round"/>
<path d="M56.3682 25.4961L57.3616 26.994" stroke="white" stroke-width="2" stroke-linecap="round" stroke-linejoin="round"/>
<path d="M59.5596 30.2998L60.553 31.7977" stroke="white" stroke-width="2" stroke-linecap="round" stroke-linejoin="round"/>
<path d="M25.5205 41.46L26.7388 42.7824" stroke="white" stroke-width="2" stroke-linecap="round" stroke-linejoin="round"/>
<path d="M29.0801 45.3281L32.5865 49.147" stroke="white" stroke-width="2" stroke-linecap="round" stroke-linejoin="round" stroke-dasharray="7.69 7.69"/>
<path d="M33.7559 50.4199L34.9741 51.7424" stroke="white" stroke-width="2" stroke-linecap="round" stroke-linejoin="round"/>
<path d="M61.1195 51.6348L60.0137 53.0562" stroke="white" stroke-width="2" stroke-linecap="round" stroke-linejoin="round"/>
<path d="M58.8041 54.6035L57.6982 56.0249" stroke="white" stroke-width="2" stroke-linecap="round" stroke-linejoin="round"/>
<path d="M49.8445 27.1387L49.5928 28.9199" stroke="white" stroke-width="2" stroke-linecap="round" stroke-linejoin="round"/>
<path d="M49.0625 32.7383L47.1924 46.1022" stroke="white" stroke-width="2" stroke-linecap="round" stroke-linejoin="round" stroke-dasharray="8.57 8.57"/>
<path d="M46.923 48.0098L46.6758 49.791" stroke="white" stroke-width="2" stroke-linecap="round" stroke-linejoin="round"/>
</g>
<defs>
<clipPath id="clip0">
<rect width="82" height="83" fill="white"/>
</clipPath>
</defs>
</svg>
