<svg width="36" height="51" viewBox="0 0 36 51" fill="none" xmlns="http://www.w3.org/2000/svg">
<path d="M17.5815 20.2605C22.7693 20.2605 26.9749 16.0548 26.9749 10.867C26.9749 5.67911 22.7693 1.47351 17.5815 1.47351C12.3936 1.47351 8.18799 5.67911 8.18799 10.867C8.18799 16.0548 12.3936 20.2605 17.5815 20.2605Z" stroke="white" stroke-width="2" stroke-linecap="round" stroke-linejoin="round"/>
<path d="M34.132 49.7831V26.6097C34.132 24.9258 33.462 23.311 32.2694 22.1203C31.0768 20.9297 29.4592 20.2607 27.7726 20.2607H7.39067C5.70405 20.2607 4.08651 20.9297 2.89389 22.1203C1.70127 23.311 1.03125 24.9258 1.03125 26.6097L1.03125 49.7831" stroke="white" stroke-width="2" stroke-linecap="round" stroke-linejoin="round"/>
<path d="M23.7214 24.8954L25.2004 29.4473H29.9866L26.1145 32.2606L27.5935 36.8125L23.7214 33.9993L19.8493 36.8125L21.3283 32.2606L17.4562 29.4473H22.2424L23.7214 24.8954Z" stroke="white" stroke-width="2" stroke-linejoin="round"/>
</svg>
