<svg width="63" height="48" viewBox="0 0 63 48" fill="none" xmlns="http://www.w3.org/2000/svg">
<path d="M56.985 46.7387C59.745 42.1634 61.2399 36.937 61.3169 31.5943C61.3938 26.2516 60.05 20.9843 57.4229 16.3314C54.7958 11.6786 50.9797 7.80718 46.3652 5.11336C41.7506 2.41953 36.5033 1 31.16 1C25.8167 1 20.5694 2.41953 15.9548 5.11336C11.3403 7.80718 7.52421 11.6786 4.89711 16.3314C2.27001 20.9843 0.926189 26.2516 1.00313 31.5943C1.08007 36.937 2.57502 42.1634 5.33501 46.7387" stroke="white" stroke-width="2" stroke-linecap="round" stroke-linejoin="round"/>
<path d="M52.605 42.3184L57.025 46.7384" stroke="white" stroke-width="2" stroke-linecap="round" stroke-linejoin="round"/>
<path d="M55.0649 29.209L61.3149 29.379" stroke="white" stroke-width="2" stroke-linecap="round" stroke-linejoin="round"/>
<path d="M31.1553 7.25879V1.00879" stroke="white" stroke-width="2" stroke-linecap="round" stroke-linejoin="round"/>
<path d="M1.00488 29.209L7.24489 29.379" stroke="white" stroke-width="2" stroke-linecap="round" stroke-linejoin="round"/>
<path d="M9.92465 42.3184L5.51465 46.7384" stroke="white" stroke-width="2" stroke-linecap="round" stroke-linejoin="round"/>
<path d="M51.6151 8.94922L47.4551 13.6092" stroke="white" stroke-width="2" stroke-linecap="round" stroke-linejoin="round"/>
<path d="M10.855 8.94922L15.005 13.6092" stroke="white" stroke-width="2" stroke-linecap="round" stroke-linejoin="round"/>
<path d="M33.825 30.7687L34.035 30.2887C36.5536 24.6084 38.5615 18.7151 40.035 12.6787C38.235 14.8787 28.885 26.2987 28.175 28.5187C28.1007 28.7718 28.067 29.0351 28.075 29.2987C28.0271 29.9933 28.2223 30.6829 28.627 31.2493C29.0318 31.8158 29.621 32.2238 30.2936 32.4035C30.9663 32.5831 31.6804 32.5233 32.3138 32.2342C32.9471 31.945 33.4601 31.4446 33.765 30.8187V30.8187L33.825 30.7687Z" stroke="white" stroke-width="2" stroke-linecap="round" stroke-linejoin="round"/>
</svg>
