<svg width="80" height="53" viewBox="0 0 80 53" fill="none" xmlns="http://www.w3.org/2000/svg">
<path d="M46.134 36.2821L46.1345 36.2803C47.2027 32.7358 47.7398 29.3271 47.7398 26.056C47.7398 22.8324 47.2025 19.4713 46.1343 15.9748C45.0541 12.3913 43.1863 9.29433 40.534 6.69116L40.5332 6.69031C36.3014 2.557 30.9152 0.5 24.4158 0.5C17.9164 0.5 12.5302 2.557 8.29843 6.69031L8.29756 6.69116C5.64528 9.29433 3.77746 12.3913 2.69734 15.9748C1.62906 19.4713 1.0918 22.8324 1.0918 26.056C1.0918 29.3271 1.62887 32.7358 2.69706 36.2803L2.69762 36.2821C3.77814 39.8184 5.64631 42.8907 8.29756 45.4928L8.29843 45.4937C12.5302 49.627 17.9164 51.684 24.4158 51.684C30.9152 51.684 36.3014 49.627 40.5332 45.4937L40.534 45.4928C43.1853 42.8907 45.0535 39.8184 46.134 36.2821ZM21.6557 16.8504L21.6558 16.8504L21.6631 16.8435C22.4333 16.1161 23.3421 15.756 24.4158 15.756C25.3291 15.756 26.224 16.1047 27.1098 16.8558C29.0187 18.5912 30.0358 21.5386 30.0358 25.84C30.0358 30.1446 29.0172 33.0642 27.1123 34.7501C26.2256 35.5027 25.3299 35.852 24.4158 35.852C23.3421 35.852 22.4333 35.4919 21.6631 34.7645L21.6632 34.7644L21.6557 34.7576C19.7421 33.022 18.7238 30.0958 18.7238 25.84C18.7238 21.5342 19.743 18.5851 21.6557 16.8504ZM78.4698 50.604H78.9698V50.104V2.08V1.58H78.4698H53.7738H53.2738V2.08V18.136V18.6763L53.8125 18.6345L60.6898 18.1003V50.104V50.604H61.1898H78.4698Z" stroke="#2255FF"/>
</svg>
