<svg width="99" height="53" viewBox="0 0 99 53" fill="none" xmlns="http://www.w3.org/2000/svg">
<path d="M46.134 36.2821L46.1345 36.2803C47.2027 32.7358 47.7398 29.3271 47.7398 26.056C47.7398 22.8324 47.2025 19.4713 46.1343 15.9748C45.0541 12.3913 43.1863 9.29433 40.534 6.69116L40.5332 6.69031C36.3014 2.557 30.9152 0.5 24.4158 0.5C17.9164 0.5 12.5302 2.557 8.29843 6.69031L8.29756 6.69116C5.64528 9.29433 3.77746 12.3913 2.69734 15.9748C1.62906 19.4713 1.0918 22.8324 1.0918 26.056C1.0918 29.3271 1.62887 32.7358 2.69706 36.2803L2.69762 36.2821C3.77814 39.8184 5.64631 42.8907 8.29756 45.4928L8.29843 45.4937C12.5302 49.627 17.9164 51.684 24.4158 51.684C30.9152 51.684 36.3014 49.627 40.5332 45.4937L40.534 45.4928C43.1853 42.8907 45.0535 39.8184 46.134 36.2821ZM21.6557 16.8504L21.6558 16.8504L21.6631 16.8435C22.4333 16.1161 23.3421 15.756 24.4158 15.756C25.3291 15.756 26.224 16.1047 27.1098 16.8558C29.0187 18.5912 30.0358 21.5386 30.0358 25.84C30.0358 30.1446 29.0172 33.0642 27.1123 34.7501C26.2256 35.5027 25.3299 35.852 24.4158 35.852C23.3421 35.852 22.4333 35.4919 21.6631 34.7645L21.6632 34.7644L21.6557 34.7576C19.7421 33.022 18.7238 30.0958 18.7238 25.84C18.7238 21.5342 19.743 18.5851 21.6557 16.8504ZM98.286 35.344V34.8189L97.7616 34.8446L90.4176 35.2046L90.4175 35.2046C88.2002 35.3137 85.7302 35.5994 83.0087 36.0602C86.975 34.4155 90.1492 32.4772 92.5136 30.2353C95.9767 26.9699 97.71 22.877 97.71 17.992C97.71 13.6363 96.1702 9.86406 93.1052 6.7001L93.1038 6.69873C89.0525 2.54862 83.463 0.5 76.402 0.5C72.8931 0.5 69.5958 1.06044 66.5138 2.18513C63.4245 3.26448 60.9029 4.86634 58.9677 7.00009L58.9677 7.00006L58.9631 7.00519C57.4722 8.6949 56.291 10.8187 55.4102 13.3627C54.5255 15.8696 54.1091 18.5208 54.1581 21.3128L54.1667 21.804H54.658H71.65H72.15V21.304C72.15 19.2318 72.5308 17.8355 73.1925 17.0083L73.1974 17.0023L73.202 16.996C73.8153 16.1783 74.6897 15.756 75.898 15.756C76.9909 15.756 77.8149 16.0799 78.4245 16.6896L78.4302 16.6953L78.4361 16.7008C79.1029 17.3259 79.43 18.0817 79.43 19C79.43 20.7924 78.44 22.9588 76.3067 25.519C74.5027 27.6551 72.2659 29.8927 69.5928 32.2317L69.5903 32.2339L49.8623 49.7299L48.8767 50.604H50.194H97.786H98.286V50.104V35.344Z" stroke="#2255FF"/>
</svg>
