<svg width="99" height="53" viewBox="0 0 99 53" fill="none" xmlns="http://www.w3.org/2000/svg">
<path d="M46.134 36.3861L46.1345 36.3843C47.2027 32.8398 47.7398 29.4311 47.7398 26.16C47.7398 22.9364 47.2025 19.5753 46.1343 16.0788C45.0541 12.4953 43.1863 9.39834 40.534 6.79516L40.5332 6.79432C36.3014 2.661 30.9152 0.604004 24.4158 0.604004C17.9164 0.604004 12.5302 2.661 8.29843 6.79431L8.29756 6.79516C5.64528 9.39833 3.77746 12.4953 2.69734 16.0788C1.62906 19.5753 1.0918 22.9364 1.0918 26.16C1.0918 29.4311 1.62887 32.8398 2.69706 36.3843L2.69762 36.3861C3.77814 39.9224 5.64631 42.9947 8.29756 45.5968L8.29843 45.5977C12.5302 49.731 17.9164 51.788 24.4158 51.788C30.9152 51.788 36.3014 49.731 40.5332 45.5977L40.534 45.5968C43.1853 42.9947 45.0535 39.9224 46.134 36.3861ZM21.6557 16.9544L21.6558 16.9544L21.6631 16.9475C22.4333 16.2201 23.3421 15.86 24.4158 15.86C25.3291 15.86 26.224 16.2087 27.1098 16.9598C29.0187 18.6952 30.0358 21.6426 30.0358 25.944C30.0358 30.2486 29.0172 33.1682 27.1123 34.8541C26.2256 35.6067 25.3299 35.956 24.4158 35.956C23.3421 35.956 22.4333 35.5959 21.6631 34.8685L21.6632 34.8684L21.6557 34.8616C19.7421 33.126 18.7238 30.1998 18.7238 25.944C18.7238 21.6382 19.743 18.6891 21.6557 16.9544ZM94.6836 27.3905C93.4201 26.1269 91.9468 25.1855 90.2687 24.5676C91.3626 24.0139 92.3804 23.2415 93.323 22.258L93.3295 22.2512L93.3358 22.2442C94.969 20.4068 95.7661 18.0242 95.7661 15.144C95.7661 11.5888 94.3821 8.50826 91.6497 5.92482C87.8775 2.3513 82.407 0.604004 75.322 0.604004C69.5519 0.604004 64.9089 1.71836 61.4398 3.99792C56.8347 7.01846 54.4504 11.372 54.3022 17.0029L54.2887 17.516H54.802H71.938H72.4815L72.4363 16.9745C72.3507 15.9469 72.6264 15.1628 73.2276 14.5616C73.7037 14.0855 74.2937 13.844 75.034 13.844C75.9572 13.844 76.5793 14.0844 76.9845 14.4896L76.991 14.4961L76.9978 14.5024C77.5627 15.0269 77.846 15.6837 77.846 16.512C77.846 17.7627 77.4917 18.5779 76.8787 19.076L76.8786 19.0758L76.8687 19.0844C76.0109 19.8196 74.8916 20.0539 73.4238 19.6981L72.806 19.5483V20.184V30.12V30.7666L73.4319 30.6039C75.7028 30.0135 77.3636 30.4138 78.5478 31.6759C79.2307 32.4912 79.5741 33.4524 79.5741 34.584C79.5741 35.7563 79.1886 36.7063 78.4245 37.4705C77.6676 38.2274 76.6735 38.62 75.3941 38.62C74.1054 38.62 73.139 38.2459 72.4356 37.5425L72.4276 37.5344L72.4192 37.5268C71.4413 36.6339 70.926 35.3649 70.926 33.648V33.148H70.426H52.858H52.353L52.3581 33.653C52.4072 38.5678 54.0091 42.6331 57.1824 45.8074C61.1079 49.8306 67.29 51.788 75.61 51.788C83.5955 51.788 89.581 49.902 93.4566 46.0286C96.3418 43.2413 97.7821 39.7259 97.7821 35.52C97.7821 32.1937 96.7601 29.4669 94.6836 27.3905Z" stroke="#2255FF"/>
</svg>
