<svg width="24" height="24" viewBox="0 0 24 24" fill="none" xmlns="http://www.w3.org/2000/svg">
<g clip-path="url(#clip0)">
<path d="M21.0701 2.86768H2.93482C1.31595 2.86768 0 4.18363 0 5.8025V18.1973C0 19.8162 1.31595 21.1321 2.93482 21.1321H21.0652C22.684 21.1321 24 19.8162 24 18.1973V5.80746C24.005 4.18859 22.689 2.86768 21.0701 2.86768ZM22.6642 18.1973C22.6642 19.0762 21.9491 19.7913 21.0701 19.7913H2.93482C2.05587 19.7913 1.34078 19.0762 1.34078 18.1973V5.80746C1.34078 4.92851 2.05587 4.21342 2.93482 4.21342H21.0652C21.9441 4.21342 22.6592 4.92851 22.6592 5.80746V18.1973H22.6642Z" fill="url(#paint0_linear)"/>
<path d="M15.1369 11.8458L21.0065 6.58202C21.2797 6.33373 21.3045 5.91163 21.0562 5.63354C20.8079 5.36042 20.3858 5.33559 20.1077 5.58388L12.0134 12.8489L10.4342 11.4386C10.4293 11.4337 10.4243 11.4287 10.4243 11.4237C10.3895 11.389 10.3548 11.3592 10.315 11.3294L3.88921 5.57892C3.61113 5.33063 3.18903 5.35546 2.94074 5.63354C2.69244 5.91163 2.71727 6.33373 2.99536 6.58202L8.93453 11.8905L3.02019 17.4275C2.75203 17.6807 2.73714 18.1028 2.99039 18.3759C3.12447 18.515 3.30324 18.5895 3.48201 18.5895C3.64589 18.5895 3.80976 18.5299 3.93887 18.4107L9.9426 12.7943L11.5714 14.2493C11.7005 14.3635 11.8594 14.4182 12.0183 14.4182C12.1772 14.4182 12.3411 14.3586 12.4653 14.2443L14.1388 12.7447L20.1077 18.4157C20.2368 18.5398 20.4057 18.5994 20.5695 18.5994C20.7483 18.5994 20.9221 18.5299 21.0562 18.3908C21.3095 18.1227 21.2995 17.6956 21.0314 17.4424L15.1369 11.8458Z" fill="url(#paint1_linear)"/>
</g>
<defs>
<linearGradient id="paint0_linear" x1="0" y1="11.9999" x2="24.0004" y2="11.9999" gradientUnits="userSpaceOnUse">
<stop stop-color="#31D8FF"/>
<stop offset="0.15" stop-color="#30CDFF"/>
<stop offset="0.4" stop-color="#2CAFFF"/>
<stop offset="0.74" stop-color="#277FFF"/>
<stop offset="1" stop-color="#2255FF"/>
</linearGradient>
<linearGradient id="paint1_linear" x1="2.76953" y1="12.0036" x2="21.2398" y2="12.0036" gradientUnits="userSpaceOnUse">
<stop stop-color="#31D8FF"/>
<stop offset="0.15" stop-color="#30CDFF"/>
<stop offset="0.4" stop-color="#2CAFFF"/>
<stop offset="0.74" stop-color="#277FFF"/>
<stop offset="1" stop-color="#2255FF"/>
</linearGradient>
<clipPath id="clip0">
<rect width="24" height="24" fill="white"/>
</clipPath>
</defs>
</svg>
