<svg width="32" height="32" viewBox="0 0 32 32" fill="none" xmlns="http://www.w3.org/2000/svg">
<path d="M0 0V32H32V0H0ZM30.0206 30.0206H1.97938V1.97938H30.0206V30.0206Z" fill="url(#paint0_linear)"/>
<path d="M21.1484 5.61133H10.8516C7.96086 5.61133 5.60938 7.96313 5.60938 10.8536V21.1503C5.60938 24.0411 7.96086 26.3923 10.8516 26.3923H21.1484C24.0391 26.3923 26.3903 24.0411 26.3903 21.1503V10.8536C26.3903 7.96313 24.0391 5.61133 21.1484 5.61133ZM24.129 21.1503C24.129 22.794 22.7917 24.1313 21.1484 24.1313H10.8516C9.20828 24.1313 7.87097 22.794 7.87097 21.1503V10.8536C7.87097 9.21023 9.20828 7.87325 10.8516 7.87325H21.1484C22.7917 7.87325 24.129 9.21023 24.129 10.8536V21.1503Z" fill="url(#paint1_linear)"/>
<path d="M21.5246 11.7567C20.8261 11.7567 20.2578 11.1887 20.2578 10.4902C20.2578 9.7921 20.8261 9.22412 21.5246 9.22412C22.223 9.22412 22.791 9.7921 22.791 10.4902C22.791 11.1887 22.223 11.7567 21.5246 11.7567Z" fill="url(#paint2_linear)"/>
<path d="M16.0002 10.6499C13.0495 10.6499 10.6484 13.0507 10.6484 16.0017C10.6484 18.9527 13.0495 21.3538 16.0002 21.3538C18.9516 21.3538 21.3527 18.9527 21.3527 16.0017C21.3527 13.051 18.9516 10.6499 16.0002 10.6499ZM16.0002 19.0929C14.297 19.0929 12.9097 17.706 12.9097 16.0017C12.9097 14.2981 14.297 12.9118 16.0002 12.9118C17.7045 12.9118 19.0908 14.2981 19.0908 16.0017C19.0908 17.706 17.7045 19.0929 16.0002 19.0929Z" fill="url(#paint3_linear)"/>
<defs>
<linearGradient id="paint0_linear" x1="0" y1="16" x2="32.0006" y2="16" gradientUnits="userSpaceOnUse">
<stop stop-color="#31D8FF"/>
<stop offset="0.15" stop-color="#30CDFF"/>
<stop offset="0.4" stop-color="#2CAFFF"/>
<stop offset="0.74" stop-color="#277FFF"/>
<stop offset="1" stop-color="#2255FF"/>
</linearGradient>
<linearGradient id="paint1_linear" x1="5.60938" y1="16.0018" x2="26.3907" y2="16.0018" gradientUnits="userSpaceOnUse">
<stop stop-color="#31D8FF"/>
<stop offset="0.15" stop-color="#30CDFF"/>
<stop offset="0.4" stop-color="#2CAFFF"/>
<stop offset="0.74" stop-color="#277FFF"/>
<stop offset="1" stop-color="#2255FF"/>
</linearGradient>
<linearGradient id="paint2_linear" x1="20.2578" y1="10.4904" x2="22.791" y2="10.4904" gradientUnits="userSpaceOnUse">
<stop stop-color="#31D8FF"/>
<stop offset="0.15" stop-color="#30CDFF"/>
<stop offset="0.4" stop-color="#2CAFFF"/>
<stop offset="0.74" stop-color="#277FFF"/>
<stop offset="1" stop-color="#2255FF"/>
</linearGradient>
<linearGradient id="paint3_linear" x1="10.6484" y1="16.0019" x2="21.3529" y2="16.0019" gradientUnits="userSpaceOnUse">
<stop stop-color="#31D8FF"/>
<stop offset="0.15" stop-color="#30CDFF"/>
<stop offset="0.4" stop-color="#2CAFFF"/>
<stop offset="0.74" stop-color="#277FFF"/>
<stop offset="1" stop-color="#2255FF"/>
</linearGradient>
</defs>
</svg>
