<svg width="36" height="36" viewBox="0 0 36 36" fill="none" xmlns="http://www.w3.org/2000/svg">
<rect x="1" y="1" width="34" height="34" fill="#646464" stroke="white" stroke-width="2"/>
<path d="M18 8C13.8 8 10.3828 11.4953 10.3828 15.6953C10.3828 19.8127 10.3828 18.6168 10.3828 22.7266C10.3828 23.6959 11.1713 24.4844 12.1406 24.4844C13.1099 24.4844 13.8984 23.6959 13.8984 22.7266V16.8672C13.8984 15.8979 13.1099 15.1094 12.1406 15.1094C11.9432 15.1094 11.7566 15.1494 11.5793 15.2096C11.8292 11.8823 14.61 9.17188 18 9.17188C21.39 9.17188 24.1708 11.8823 24.4207 15.2096C24.2434 15.1494 24.0568 15.1094 23.8594 15.1094C22.8901 15.1094 22.1016 15.8979 22.1016 16.8672V22.7266C22.1016 23.4895 22.5929 24.1338 23.2734 24.3764V25.0703C23.2734 25.3936 23.0108 25.6562 22.6875 25.6562H19.6499C19.4072 24.9757 18.7629 24.4844 18 24.4844C17.0307 24.4844 16.2422 25.2729 16.2422 26.2422C16.2422 27.2115 17.0307 28 18 28C18.7629 28 19.4072 27.5087 19.6499 26.8281H22.6875C23.6568 26.8281 24.4453 26.0396 24.4453 25.0703V24.3764C25.1259 24.1338 25.6172 23.4895 25.6172 22.7266C25.6172 18.6168 25.6172 19.8126 25.6172 15.6953C25.6172 11.4953 22.2 8 18 8Z" fill="white"/>
<path d="M8 18.0391V21.5547C8 22.3176 8.53039 22.9619 9.21094 23.2046V16.3892C8.53039 16.6319 8 17.2762 8 18.0391Z" fill="white"/>
<path d="M26.7891 16.3892V23.2046C27.4696 22.9619 28 22.3176 28 21.5547V18.0391C28 17.2762 27.4696 16.6319 26.7891 16.3892Z" fill="white"/>
</svg>
