<svg width="24" height="24" viewBox="0 0 24 24" fill="none" xmlns="http://www.w3.org/2000/svg">
<path d="M11.9951 0C6.69198 0 2.375 4.31698 2.375 9.62013C2.375 10.2239 2.43035 10.8327 2.54607 11.4264C2.5511 11.4616 2.57123 11.5673 2.61148 11.7484C2.75739 12.3975 2.97374 13.0365 3.2555 13.6453C4.29198 16.0855 6.57123 19.834 11.5725 23.8491C11.6983 23.9497 11.8492 24 12.0002 24C12.1511 24 12.302 23.9497 12.4278 23.8491C17.4241 19.834 19.7083 16.0855 20.7448 13.6453C21.0266 13.0365 21.2429 12.4025 21.3888 11.7484C21.4291 11.5673 21.4492 11.4616 21.4542 11.4264C21.5649 10.8327 21.6253 10.2239 21.6253 9.62013C21.6152 4.31698 17.2983 0 11.9951 0ZM20.1058 11.1899C20.1058 11.2 20.1008 11.2101 20.1008 11.2201C20.0958 11.2453 20.0807 11.3208 20.0555 11.4365C20.0555 11.4415 20.0555 11.4415 20.0555 11.4465C19.9297 12.0101 19.7436 12.5585 19.497 13.0868C19.492 13.0918 19.492 13.1019 19.4869 13.1069C18.5461 15.3358 16.4832 18.7371 11.9951 22.4453C7.50708 18.7371 5.44418 15.3358 4.5033 13.1069C4.49827 13.1019 4.49827 13.0918 4.49324 13.0868C4.25173 12.5635 4.06557 12.0101 3.93475 11.4465C3.93475 11.4415 3.93475 11.4415 3.93475 11.4365C3.90456 11.3208 3.8945 11.2453 3.88947 11.2201C3.88947 11.2101 3.88443 11.2 3.88443 11.1849C3.7838 10.6667 3.73349 10.1434 3.73349 9.61509C3.73349 5.06164 7.44167 1.35346 11.9951 1.35346C16.5486 1.35346 20.2568 5.06164 20.2568 9.61509C20.2568 10.1484 20.2064 10.6767 20.1058 11.1899Z" fill="url(#paint0_linear)"/>
<path d="M11.9949 3.61768C8.62886 3.61768 5.88672 6.35981 5.88672 9.72584C5.88672 13.0919 8.62886 15.834 11.9949 15.834C15.3609 15.834 18.1031 13.0919 18.1031 9.72584C18.1031 6.35981 15.3609 3.61768 11.9949 3.61768ZM11.9949 14.4755C9.37351 14.4755 7.24521 12.3422 7.24521 9.72584C7.24521 7.10949 9.37854 4.97616 11.9949 4.97616C14.6112 4.97616 16.7446 7.10949 16.7446 9.72584C16.7446 12.3422 14.6163 14.4755 11.9949 14.4755Z" fill="url(#paint1_linear)"/>
<defs>
<linearGradient id="paint0_linear" x1="2.375" y1="12" x2="21.6256" y2="12" gradientUnits="userSpaceOnUse">
<stop stop-color="#31D8FF"/>
<stop offset="0.15" stop-color="#30CDFF"/>
<stop offset="0.4" stop-color="#2CAFFF"/>
<stop offset="0.74" stop-color="#277FFF"/>
<stop offset="1" stop-color="#2255FF"/>
</linearGradient>
<linearGradient id="paint1_linear" x1="5.88672" y1="9.72584" x2="18.1033" y2="9.72584" gradientUnits="userSpaceOnUse">
<stop stop-color="#31D8FF"/>
<stop offset="0.15" stop-color="#30CDFF"/>
<stop offset="0.4" stop-color="#2CAFFF"/>
<stop offset="0.74" stop-color="#277FFF"/>
<stop offset="1" stop-color="#2255FF"/>
</linearGradient>
</defs>
</svg>
