<svg width="38" height="40" viewBox="0 0 38 40" fill="none" xmlns="http://www.w3.org/2000/svg">
<path fill-rule="evenodd" clip-rule="evenodd" d="M19.8373 0.981379C28.49 1.01969 32.3747 3.83969 33.3359 4.72667C36.528 7.49326 38.2944 13.6313 37.1039 23.3353C36.0535 31.9094 30.078 33.4285 28.0725 33.9384C27.8758 33.9884 27.7173 34.0287 27.6054 34.065C27.0632 34.2414 22.2893 35.4355 16.0822 34.9131C15.3972 35.7095 14.4882 36.7515 13.8299 37.4608C13.6315 37.6746 13.4457 37.8858 13.2682 38.0877C12.3725 39.1061 11.6856 39.8871 10.6372 39.5616C9.59873 39.24 9.65678 37.6628 9.65678 37.6628L9.66258 33.7672H9.65387C0.577986 31.2142 0.710918 21.7987 0.813664 16.7746C0.91641 11.7505 1.89046 7.69818 4.65938 4.92868C9.63356 0.366065 19.8373 0.981379 19.8373 0.981379ZM19.5788 3.61471C26.8981 3.64664 30.406 5.85074 31.2187 6.58912C33.9191 8.90119 35.2949 14.4338 34.2889 22.5391C33.4126 29.6172 28.6644 30.7242 26.9493 31.1241C26.759 31.1685 26.6061 31.2041 26.4999 31.2383C26.0489 31.3857 21.8549 32.4265 16.5835 32.0823C16.5835 32.0823 12.6548 36.822 11.4276 38.0543C11.2361 38.2453 11.0108 38.3231 10.8605 38.2865C10.6515 38.2349 10.5935 37.9847 10.5935 37.619C10.5969 37.0959 10.6271 31.1454 10.6271 31.1454C3.20757 29.0841 3.37986 21.5241 3.47765 17.2328C3.48101 17.0853 3.48429 16.9416 3.48716 16.8022C3.57365 12.6064 4.36253 9.16822 6.70421 6.85614C10.9116 3.04526 19.5788 3.61471 19.5788 3.61471Z" fill="white"/>
</svg>
