<svg width="32" height="32" viewBox="0 0 32 32" fill="none" xmlns="http://www.w3.org/2000/svg">
<path d="M9.55002 18.2078C10.3523 19.295 11.2743 20.2563 12.4652 20.9364C13.8139 21.7073 15.266 21.9398 16.7974 21.8689C17.5129 21.8346 17.7281 21.648 17.7611 20.9352C17.7833 20.4468 17.8397 19.9596 18.0802 19.5207C18.3165 19.0903 18.675 19.0089 19.0887 19.2767C19.2946 19.412 19.4681 19.5813 19.6322 19.7625C20.0353 20.2024 20.4255 20.6581 20.8431 21.0836C21.3681 21.6181 21.9907 21.9331 22.7719 21.8689L25.7987 21.8702C26.2859 21.8372 26.5392 21.2401 26.2596 20.6947C26.0627 20.314 25.8041 19.9754 25.531 19.6468C24.9124 18.9037 24.1835 18.2705 23.4944 17.5983C22.8732 16.9919 22.8338 16.6398 23.3328 15.9401C23.8789 15.1756 24.4645 14.4416 25.0147 13.6813C25.5281 12.971 26.0549 12.2617 26.3237 11.4122C26.4959 10.8699 26.3436 10.631 25.7897 10.5351C25.6938 10.5194 25.5941 10.5194 25.4969 10.5194L22.2034 10.5153C21.7977 10.5089 21.5745 10.6862 21.4312 11.0457C21.2369 11.5318 21.0374 12.0176 20.806 12.4851C20.2835 13.5488 19.699 14.5769 18.8797 15.4462C18.6985 15.6377 18.4974 15.8808 18.1956 15.781C17.8188 15.6431 17.7072 15.021 17.7137 14.8109L17.7109 11.0091C17.6377 10.4671 17.5165 10.2241 16.9771 10.1187H13.5562C13.1008 10.1187 12.8709 10.2962 12.6266 10.581C12.4874 10.7467 12.4438 10.8529 12.733 10.9081C13.3 11.0156 13.6219 11.3833 13.706 11.9522C13.8413 12.8622 13.832 13.7759 13.7534 14.6885C13.731 14.955 13.6851 15.2205 13.5797 15.4699C13.4145 15.8625 13.1464 15.9413 12.7959 15.6998C12.4797 15.4818 12.2565 15.1746 12.0369 14.8661C11.2163 13.7063 10.5624 12.4565 10.0279 11.1431C9.87425 10.7635 9.60776 10.5339 9.20595 10.5272C8.21832 10.5114 7.22966 10.5091 6.24075 10.5284C5.64719 10.539 5.46987 10.8279 5.71291 11.3676C6.78843 13.7614 7.98611 16.0882 9.55002 18.2078Z" fill="url(#paint0_linear)"/>
<path d="M0 0V32H32V0H0ZM30.0206 30.0206H1.97938V1.97938H30.0206V30.0206Z" fill="url(#paint1_linear)"/>
<defs>
<linearGradient id="paint0_linear" x1="5.60742" y1="15.9998" x2="26.3912" y2="15.9998" gradientUnits="userSpaceOnUse">
<stop stop-color="#31D8FF"/>
<stop offset="0.15" stop-color="#30CDFF"/>
<stop offset="0.4" stop-color="#2CAFFF"/>
<stop offset="0.74" stop-color="#277FFF"/>
<stop offset="1" stop-color="#2255FF"/>
</linearGradient>
<linearGradient id="paint1_linear" x1="0" y1="16" x2="32.0006" y2="16" gradientUnits="userSpaceOnUse">
<stop stop-color="#31D8FF"/>
<stop offset="0.15" stop-color="#30CDFF"/>
<stop offset="0.4" stop-color="#2CAFFF"/>
<stop offset="0.74" stop-color="#277FFF"/>
<stop offset="1" stop-color="#2255FF"/>
</linearGradient>
</defs>
</svg>
