<svg width="32" height="32" viewBox="0 0 32 32" fill="none" xmlns="http://www.w3.org/2000/svg">
<path d="M8.21593 22.9556C10.793 23.2428 13.401 23.2446 15.9981 23.2428C18.5961 23.2446 21.2046 23.2428 23.7806 22.9556C24.8688 22.834 25.7729 22.018 26.0275 20.9129C26.3899 19.3394 26.3909 17.6203 26.3909 15.9997C26.3909 14.3794 26.3943 12.6611 26.0316 11.0876C25.777 9.98142 24.8731 9.16648 23.7845 9.04508C21.2077 8.75694 18.5992 8.75591 16.0025 8.75694C13.4054 8.75591 10.7961 8.75694 8.21876 9.04508C7.13165 9.16648 6.22752 9.98142 5.97392 11.0876C5.6118 12.6611 5.60742 14.3794 5.60742 16C5.60742 17.6206 5.60742 19.3394 5.97005 20.9129C6.2234 22.018 7.12752 22.834 8.21593 22.9556ZM13.3175 12.3533C15.5195 13.5023 17.7077 14.6433 19.9244 15.8C17.7141 16.9459 15.5257 18.0812 13.3175 19.2263V12.3533Z" fill="url(#paint0_linear)"/>
<path d="M0 0V32H32V0H0ZM30.0206 30.0206H1.97938V1.97938H30.0206V30.0206Z" fill="url(#paint1_linear)"/>
<defs>
<linearGradient id="paint0_linear" x1="5.60742" y1="15.9999" x2="26.3913" y2="15.9999" gradientUnits="userSpaceOnUse">
<stop stop-color="#31D8FF"/>
<stop offset="0.15" stop-color="#30CDFF"/>
<stop offset="0.4" stop-color="#2CAFFF"/>
<stop offset="0.74" stop-color="#277FFF"/>
<stop offset="1" stop-color="#2255FF"/>
</linearGradient>
<linearGradient id="paint1_linear" x1="0" y1="16" x2="32.0006" y2="16" gradientUnits="userSpaceOnUse">
<stop stop-color="#31D8FF"/>
<stop offset="0.15" stop-color="#30CDFF"/>
<stop offset="0.4" stop-color="#2CAFFF"/>
<stop offset="0.74" stop-color="#277FFF"/>
<stop offset="1" stop-color="#2255FF"/>
</linearGradient>
</defs>
</svg>
