<svg width="128" height="111" viewBox="0 0 128 111" fill="none" xmlns="http://www.w3.org/2000/svg">
<path d="M162.869 60.2018H162.963C163.221 60.215 163.474 60.1258 163.665 59.9537C163.857 59.7815 163.972 59.5407 163.986 59.284C163.999 59.0273 163.909 58.7759 163.737 58.585C163.564 58.3942 163.322 58.2795 163.064 58.2662L156.1 57.5178V32.0332L162.856 32.7623H162.963C163.221 32.7755 163.474 32.6863 163.665 32.5142C163.857 32.3421 163.972 32.1012 163.986 31.8445C163.999 31.5878 163.909 31.3364 163.737 31.1456C163.564 30.9547 163.322 30.84 163.064 30.8267L156.113 30.0945V-2.03223C156.113 -2.2889 156.011 -2.53506 155.829 -2.71655C155.646 -2.89804 155.399 -3 155.141 -3C154.883 -3 154.636 -2.89804 154.454 -2.71655C154.271 -2.53506 154.169 -2.2889 154.169 -2.03223V29.8848L135.916 27.9202V-2.03223C135.916 -2.2889 135.814 -2.53506 135.631 -2.71655C135.449 -2.89804 135.202 -3 134.944 -3C134.686 -3 134.439 -2.89804 134.257 -2.71655C134.074 -2.53506 133.972 -2.2889 133.972 -2.03223V27.7138L115.719 25.7395V-2.03223C115.719 -2.2889 115.616 -2.53506 115.434 -2.71655C115.252 -2.89804 115.005 -3 114.747 -3C114.489 -3 114.242 -2.89804 114.059 -2.71655C113.877 -2.53506 113.775 -2.2889 113.775 -2.03223V25.5395L95.5248 23.5782V-2.03223C95.5248 -2.2889 95.4224 -2.53506 95.2401 -2.71655C95.0578 -2.89804 94.8105 -3 94.5527 -3C94.2949 -3 94.0476 -2.89804 93.8653 -2.71655C93.683 -2.53506 93.5806 -2.2889 93.5806 -2.03223V23.3685L75.3276 21.4039V-2.03223C75.3276 -2.2889 75.2251 -2.53506 75.0428 -2.71655C74.8605 -2.89804 74.6133 -3 74.3554 -3C74.0976 -3 73.8504 -2.89804 73.6681 -2.71655C73.4857 -2.53506 73.3833 -2.2889 73.3833 -2.03223V21.1942L55.1303 19.2297V-2.03223C55.1303 -2.2889 55.0279 -2.53506 54.8456 -2.71655C54.6633 -2.89804 54.416 -3 54.1582 -3C53.9004 -3 53.6531 -2.89804 53.4708 -2.71655C53.2885 -2.53506 53.1861 -2.2889 53.1861 -2.03223V19.0232L34.9331 17.0618V-2.03223C34.9331 -2.2889 34.8307 -2.53506 34.6484 -2.71655C34.466 -2.89804 34.2188 -3 33.961 -3C33.7031 -3 33.4559 -2.89804 33.2736 -2.71655C33.0913 -2.53506 32.9889 -2.2889 32.9889 -2.03223V16.8522L14.7391 14.8876V-2.03223C14.7391 -2.2889 14.6367 -2.53506 14.4544 -2.71655C14.2721 -2.89804 14.0248 -3 13.767 -3C13.5092 -3 13.2619 -2.89804 13.0796 -2.71655C12.8973 -2.53506 12.7949 -2.2889 12.7949 -2.03223V14.6811L-0.924873 13.2037C-1.18093 13.1765 -1.43733 13.2517 -1.63781 13.4125C-1.83828 13.5734 -1.96646 13.8069 -1.9942 14.0618C-2.00814 14.1882 -1.9969 14.3162 -1.96111 14.4383C-1.92532 14.5605 -1.8657 14.6744 -1.78564 14.7736C-1.70558 14.8728 -1.60666 14.9553 -1.49455 15.0163C-1.38243 15.0774 -1.25932 15.1159 -1.13226 15.1295L12.8013 16.6264V42.1109L-0.918392 40.6367C-1.17444 40.6096 -1.43085 40.6847 -1.63133 40.8456C-1.8318 41.0064 -1.95998 41.2399 -1.98772 41.4948C-2.01496 41.7497 -1.93951 42.005 -1.77791 42.2045C-1.61631 42.4041 -1.38178 42.5317 -1.12578 42.5593L12.2246 43.9949L5.00501 52.2693V52.2919L-0.908671 51.6467C-1.16472 51.6196 -1.42113 51.6947 -1.6216 51.8555C-1.82208 52.0164 -1.95026 52.2499 -1.97799 52.5048C-1.99194 52.6312 -1.9807 52.7592 -1.94491 52.8813C-1.90912 53.0035 -1.84949 53.1174 -1.76944 53.2166C-1.68938 53.3158 -1.59046 53.3983 -1.47835 53.4593C-1.36623 53.5204 -1.24312 53.5589 -1.11606 53.5725L5.56235 54.2887L12.4481 63.8567L-0.908671 62.4212C-1.16472 62.394 -1.42113 62.4692 -1.6216 62.63C-1.82208 62.7909 -1.95026 63.0244 -1.97799 63.2793C-2.00524 63.5342 -1.92979 63.7894 -1.76819 63.989C-1.60659 64.1886 -1.37205 64.3162 -1.11606 64.3438L12.8175 65.8438V112.032C12.8175 112.289 12.92 112.535 13.1023 112.717C13.2846 112.898 13.5318 113 13.7897 113C14.0475 113 14.2947 112.898 14.477 112.717C14.6593 112.535 14.7618 112.289 14.7618 112.032V66.0632L32.8139 67.9987L32.9759 68.2278L33.0115 68.2665V112.032C33.0115 112.289 33.114 112.535 33.2963 112.717C33.4786 112.898 33.7258 113 33.9837 113C34.2415 113 34.4887 112.898 34.671 112.717C34.8533 112.535 34.9558 112.289 34.9558 112.032V68.2342L53.2088 70.1956V112.032C53.2088 112.289 53.3112 112.535 53.4935 112.717C53.6758 112.898 53.9231 113 54.1809 113C54.4387 113 54.686 112.898 54.8683 112.717C55.0506 112.535 55.153 112.289 55.153 112.032V70.4182L72.8811 72.3247L73.3704 73.0021C73.3805 73.0165 73.3925 73.0295 73.406 73.0408V112.032C73.406 112.289 73.5084 112.535 73.6907 112.717C73.873 112.898 74.1203 113 74.3781 113C74.6359 113 74.8832 112.898 75.0655 112.717C75.2478 112.535 75.3502 112.289 75.3502 112.032V72.5795L93.6033 74.5409V112.032C93.6033 112.289 93.7057 112.535 93.888 112.717C94.0703 112.898 94.3175 113 94.5754 113C94.8332 113 95.0804 112.898 95.2627 112.717C95.4451 112.535 95.5475 112.289 95.5475 112.032V74.7505L113.775 76.7087V112.032C113.775 112.289 113.877 112.535 114.059 112.717C114.242 112.898 114.489 113 114.747 113C115.005 113 115.252 112.898 115.434 112.717C115.616 112.535 115.719 112.289 115.719 112.032V76.9216L133.972 78.8861V112.032C133.972 112.289 134.074 112.535 134.257 112.717C134.439 112.898 134.686 113 134.944 113C135.202 113 135.449 112.898 135.631 112.717C135.814 112.535 135.916 112.289 135.916 112.032V79.0926L154.169 81.0572V112.026C154.169 112.282 154.271 112.529 154.454 112.71C154.636 112.892 154.883 112.994 155.141 112.994C155.399 112.994 155.646 112.892 155.829 112.71C156.011 112.529 156.113 112.282 156.113 112.026V81.2669L162.869 81.9927H162.976C163.234 82.0059 163.487 81.9167 163.678 81.7446C163.87 81.5725 163.985 81.3316 163.999 81.0749C164.012 80.8182 163.922 80.5668 163.749 80.376C163.577 80.1851 163.335 80.0704 163.077 80.0571L155.3 79.2184L148.414 69.6633L162.869 71.2246H162.976C163.234 71.2379 163.487 71.1487 163.678 70.9765C163.87 70.8044 163.985 70.5635 163.999 70.3069C164.012 70.0502 163.922 69.7988 163.749 69.6079C163.577 69.417 163.335 69.3024 163.077 69.2891L148.31 67.6987L155.543 59.405L162.869 60.2018ZM154.169 31.8139V57.2985L135.916 55.3371V29.8525L154.169 31.8139ZM73.9342 70.4827L67.0484 60.9018L85.5769 62.8922L92.4626 72.4602L73.9342 70.4827ZM33.961 65.8019C33.8504 65.8028 33.7408 65.8224 33.6369 65.86L26.978 56.6049L45.1824 58.563L52.0682 68.131L34.7905 66.2729C34.7046 66.13 34.5832 66.0115 34.4378 65.929C34.2925 65.8465 34.1283 65.8027 33.961 65.8019ZM34.609 46.4078L51.8381 48.2595L44.625 56.5307V56.5533L27.3927 54.7016L34.609 46.4078ZM54.1906 48.5143L72.9848 50.5337L65.7523 58.8275L46.9581 56.8081L54.1906 48.5143ZM105.197 63.0696L87.3526 61.1534L94.53 52.9209C94.6167 52.9194 94.7028 52.9064 94.786 52.8822L112.443 54.7726L105.23 63.0438L105.197 63.0696ZM85.0163 60.876L85.0001 60.8985L68.0983 59.0824L75.0716 51.0821C75.1503 50.9937 75.2109 50.8906 75.2498 50.7789L92.2293 52.6048L85.0163 60.876ZM94.8767 72.515L88.1691 63.1954L105.774 65.0954L112.657 74.6634L95.2785 72.7924C95.1705 72.6674 95.0322 72.5719 94.8767 72.515ZM115.071 74.686L108.366 65.3664L125.968 67.26L132.854 76.828L115.476 74.9602C115.367 74.8334 115.227 74.7358 115.071 74.6763V74.686ZM125.411 65.2535L107.566 63.318L114.795 55.0242L132.64 56.9436L125.427 65.2148L125.411 65.2535ZM133.972 29.659V55.1435L115.719 53.179V27.6944L133.972 29.659ZM113.775 27.4879V52.9725L95.5248 51.0112V25.5266L113.775 27.4879ZM93.5806 25.3137V50.7983L75.3276 48.8369V23.3523L93.5806 25.3137ZM73.3833 23.1588V48.6434L55.1303 46.6788V21.1942L73.3833 23.1588ZM53.1861 20.9878V46.4723L34.9331 44.511V19.0264L53.1861 20.9878ZM32.9889 18.8006V44.2852L15.3872 42.3916C15.3301 42.2808 15.2533 42.1813 15.1603 42.098C15.039 41.996 14.8943 41.9251 14.7391 41.8916V16.836L32.9889 18.8006ZM14.5706 44.2529L32.2695 46.1562L25.037 54.45L7.33807 52.5435L14.5706 44.2529ZM15.0242 64.147L8.13845 54.579L24.3857 56.3242L31.2682 65.889L15.0242 64.147ZM54.8808 68.4342C54.7724 68.3104 54.6341 68.216 54.479 68.16L47.7714 58.8404L64.6052 60.6502C64.6269 60.8068 64.6858 60.9561 64.7769 61.0857L71.3387 70.202L54.8808 68.4342ZM152.704 78.9668L135.67 77.1345C135.562 77.0106 135.423 76.9171 135.268 76.8635L128.56 67.5407L145.822 69.3988L152.704 78.9668ZM145.955 67.4665L127.76 65.5084L134.993 57.2146L153.187 59.1727L145.955 67.4665Z" fill="#333E5B"/>
</svg>
