<svg width="173" height="113" viewBox="0 0 173 113" fill="none" xmlns="http://www.w3.org/2000/svg">
<path d="M159.647 82.7329C159.257 82.1913 158.702 81.4258 158.016 80.5014L158.795 94.6049C161.285 97.6163 163.35 100.447 165.046 102.924C165.149 103.078 165.203 103.259 165.2 103.444C165.197 103.629 165.138 103.809 165.031 103.96C164.924 104.11 164.773 104.225 164.599 104.287C164.425 104.35 164.236 104.358 164.057 104.311C161.372 103.646 158.745 103.047 156.161 102.484V37.3172C156.197 35.9415 155.958 34.5723 155.457 33.2907C154.956 32.009 154.203 30.8407 153.244 29.8548C152.284 28.8688 151.137 28.0852 149.869 27.5502C148.602 27.0151 147.241 26.7394 145.865 26.7394C144.49 26.7394 143.128 27.0151 141.861 27.5502C140.593 28.0852 139.446 28.8688 138.486 29.8548C137.527 30.8407 136.774 32.009 136.273 33.2907C135.772 34.5723 135.533 35.9415 135.569 37.3172V58.2088C134.436 57.4 133.274 56.6129 132.069 55.8546L132.74 70.7453C133.714 71.3808 134.652 72.0379 135.569 72.6879V98.8078C133.548 98.5262 131.585 98.2807 129.672 98.0857V13.3203C129.59 9.75961 128.119 6.37235 125.573 3.88303C123.027 1.39371 119.609 0 116.049 0C112.489 0 109.071 1.39371 106.525 3.88303C103.979 6.37235 102.508 9.75961 102.426 13.3203V96.237C98.5789 96.1792 94.8619 96.237 91.1953 96.3092V60.8808C93.9669 60.6353 96.5508 60.5269 98.9254 60.5269L100.513 45.8313C97.4045 45.7156 94.2914 45.8097 91.1953 46.1129V21.8127C91.1171 18.5618 89.7714 15.4704 87.4457 13.1988C85.12 10.9273 81.9987 9.65567 78.7486 9.65567C75.4985 9.65567 72.3772 10.9273 70.0515 13.1988C67.7258 15.4704 66.3801 18.5618 66.3018 21.8127V52.4822L66.1936 52.5256V66.4413H66.3018V97.9413L57.7418 98.7212V69.8354C59.5967 69.0194 61.4227 68.2611 63.2199 67.5751L64.5913 53.2261C62.2768 54.1889 59.9937 55.2456 57.7418 56.3963V42.0256C57.7418 39.4649 56.7251 37.0091 54.9154 35.1984C53.1057 33.3877 50.6511 32.3705 48.0918 32.3705C45.5325 32.3705 43.078 33.3877 41.2683 35.1984C39.4586 37.0091 38.4419 39.4649 38.4419 42.0256V100.722C36.4282 100.96 34.4578 101.205 32.5451 101.444V84.2999C33.647 83.5104 34.7441 82.7473 35.8364 82.0107L36.8901 69.1349C35.4033 70.2109 33.9598 71.3013 32.5596 72.3918V60.9169C32.5596 59.0534 31.8197 57.2661 30.5027 55.9484C29.1856 54.6307 27.3994 53.8904 25.5368 53.8904C23.6743 53.8904 21.8881 54.6307 20.571 55.9484C19.254 57.2661 18.5141 59.0534 18.5141 60.9169V103.328C15.9374 103.711 13.5051 104.051 11.2388 104.441C11.048 104.47 10.8528 104.438 10.6814 104.35C10.5099 104.261 10.3712 104.12 10.2852 103.947C10.1992 103.774 10.1704 103.578 10.203 103.388C10.2356 103.197 10.3279 103.022 10.4665 102.888C10.8923 102.462 11.3326 102.036 11.7801 101.61C13.2958 100.165 14.8043 98.7645 16.3055 97.4069L17.2294 85.6504C6.46796 96.0565 -0.0928357 105.018 0.000993086 107.315C0.0876043 110.788 1.81982 112.11 1.81982 112.11C2.82088 112.787 4.03759 113.067 5.23375 112.897H168.51C169.737 113.085 171.231 113.099 172.119 112.211C176.132 108.318 165.464 90.7992 159.647 82.7329Z" fill="black"/>
</svg>
