<svg width="48" height="31" viewBox="0 0 48 31" fill="none" xmlns="http://www.w3.org/2000/svg">
<path d="M44.2951 22.6966C44.187 22.548 44.0328 22.3381 43.8426 22.0845L44.0588 25.9536C44.7497 26.7797 45.3224 27.5563 45.7931 28.2358C45.8217 28.278 45.8366 28.3277 45.8359 28.3785C45.8351 28.4293 45.8188 28.4786 45.789 28.5199C45.7592 28.5613 45.7173 28.5926 45.669 28.6098C45.6207 28.627 45.5683 28.6292 45.5187 28.6162C44.7737 28.4339 44.0448 28.2695 43.3279 28.115V10.2375C43.338 9.86004 43.2716 9.48445 43.1326 9.13284C42.9935 8.78123 42.7847 8.46072 42.5185 8.19025C42.2522 7.91977 41.9339 7.70479 41.5823 7.55801C41.2306 7.41122 40.8529 7.33559 40.4712 7.33559C40.0896 7.33559 39.7118 7.41122 39.3602 7.55801C39.0086 7.70479 38.6902 7.91977 38.424 8.19025C38.1577 8.46072 37.9489 8.78123 37.8099 9.13284C37.6709 9.48445 37.6045 9.86004 37.6146 10.2375V15.9688C37.3001 15.7469 36.9777 15.531 36.6433 15.323L36.8295 19.408C37.0999 19.5823 37.3602 19.7626 37.6146 19.9409V27.1066C37.0538 27.0293 36.5091 26.962 35.9785 26.9085V3.65425C35.9557 2.67742 35.5475 1.74817 34.8411 1.06526C34.1347 0.382344 33.1863 0 32.1986 0C31.2109 0 30.2625 0.382344 29.5561 1.06526C28.8497 1.74817 28.4415 2.67742 28.4187 3.65425V26.4013C27.3514 26.3855 26.3201 26.4013 25.3027 26.4211V16.7018C26.0717 16.6345 26.7887 16.6047 27.4475 16.6047L27.8881 12.5732C27.0255 12.5415 26.1618 12.5673 25.3027 12.6504V5.98403C25.281 5.09218 24.9077 4.24409 24.2624 3.62092C23.6171 2.99774 22.7511 2.6489 21.8493 2.6489C20.9475 2.6489 20.0815 2.99774 19.4362 3.62092C18.791 4.24409 18.4176 5.09218 18.3959 5.98403V14.3978L18.3658 14.4097V18.2273H18.3959V26.8688L16.0208 27.0828V19.1584C16.5355 18.9345 17.0422 18.7265 17.5408 18.5383L17.9213 14.6018C17.2791 14.866 16.6456 15.1559 16.0208 15.4715V11.5291C16.0208 10.8267 15.7388 10.1529 15.2366 9.6562C14.7345 9.15947 14.0535 8.8804 13.3434 8.8804C12.6333 8.8804 11.9523 9.15947 11.4502 9.6562C10.948 10.1529 10.666 10.8267 10.666 11.5291V27.6316C10.1072 27.6969 9.56055 27.7643 9.02987 27.8297V23.1265C9.33559 22.9099 9.63998 22.7006 9.94304 22.4985L10.2354 18.9662C9.82288 19.2614 9.42237 19.5605 9.03387 19.8597V16.7117C9.03387 16.2005 8.82858 15.7102 8.46317 15.3487C8.09775 14.9872 7.60214 14.7841 7.08537 14.7841C6.56859 14.7841 6.07299 14.9872 5.70757 15.3487C5.34216 15.7102 5.13687 16.2005 5.13687 16.7117V28.3467C4.42195 28.4517 3.74708 28.5449 3.11827 28.6518C3.06535 28.66 3.01119 28.6512 2.96362 28.6269C2.91605 28.6025 2.87755 28.5638 2.85369 28.5164C2.82983 28.469 2.82184 28.4152 2.83088 28.363C2.83993 28.3108 2.86554 28.2628 2.904 28.2259C3.02215 28.109 3.14431 27.9921 3.26847 27.8752C3.68901 27.479 4.10755 27.0947 4.52408 26.7222L4.78041 23.497C1.79458 26.3518 -0.0257579 28.8103 0.000275538 29.4403C0.0243064 30.3932 0.504921 30.7558 0.504921 30.7558C0.782671 30.9415 1.12026 31.0184 1.45214 30.9717H46.7543C47.0947 31.0232 47.5093 31.0272 47.7556 30.7835C48.869 29.7157 45.9092 24.9095 44.2951 22.6966Z" fill="#E8E7E5"/>
</svg>
